<svg id="svg" xmlns="http://www.w3.org/2000/svg" xmlns:xlink="http://www.w3.org/1999/xlink" width="400" height="400" viewBox="0, 0, 400,400"><g id="svgg"><path id="path0" d="M238.049 35.030 C 214.550 43.434,192.256 56.868,172.935 74.264 L 167.985 78.722 163.830 77.766 C 145.431 73.533,132.274 77.004,125.979 87.750 C 124.501 90.274,124.456 90.281,130.335 87.110 C 138.507 82.701,144.672 83.061,149.859 88.248 C 152.028 90.416,151.995 92.048,149.756 93.440 C 148.772 94.051,145.861 96.689,143.285 99.301 C 137.230 105.443,131.812 108.897,124.945 110.992 C 118.627 112.919,115.772 115.168,115.772 118.220 C 115.772 119.652,115.334 120.322,113.984 120.957 C 108.633 123.471,99.259 127.038,95.195 128.107 C 82.548 131.434,77.282 144.228,85.366 151.989 C 92.442 158.784,96.423 158.359,105.401 149.850 C 117.260 138.612,123.373 137.210,146.016 140.539 C 169.990 144.064,181.881 138.441,184.452 122.362 C 185.039 118.694,186.020 118.905,190.840 123.740 C 195.155 128.068,197.636 131.838,200.082 137.784 L 201.595 141.463 201.588 135.935 C 201.584 132.894,201.162 128.504,200.650 126.179 C 198.935 118.379,199.058 118.302,205.173 123.346 C 207.621 125.365,209.385 126.609,209.092 126.110 C 208.800 125.611,206.671 122.170,204.360 118.464 C 199.798 111.145,199.782 110.226,204.228 110.973 C 210.767 112.071,217.880 117.286,220.782 123.109 C 231.502 144.622,188.675 166.113,141.960 162.662 C 132.385 161.955,117.056 159.769,115.490 158.888 C 115.108 158.673,115.675 159.446,116.748 160.604 C 119.843 163.944,127.641 168.837,132.387 170.416 L 136.743 171.866 134.876 173.042 C 131.735 175.021,123.565 177.436,117.398 178.209 C 114.179 178.612,110.635 179.076,109.523 179.239 C 107.303 179.566,94.842 187.821,87.158 194.056 C 60.953 215.320,51.007 239.920,57.929 266.347 C 59.384 271.902,65.639 288.130,66.325 288.130 C 66.560 288.130,67.411 283.713,68.216 278.314 C 70.311 264.270,70.248 264.316,74.671 273.642 C 83.248 291.727,83.211 316.930,74.577 337.402 C 71.948 343.636,72.337 343.665,78.783 337.716 C 84.782 332.182,89.761 325.064,93.273 317.003 C 94.970 313.106,97.827 306.662,99.621 302.681 L 102.884 295.444 111.442 300.634 C 126.191 309.578,143.907 317.904,150.569 319.022 C 153.169 319.459,153.168 319.457,148.943 316.858 C 135.924 308.847,137.245 307.216,151.870 313.246 C 189.912 328.930,208.056 341.972,220.301 362.435 L 223.089 367.095 223.089 363.767 C 223.089 344.467,209.454 324.503,184.857 307.788 L 179.470 304.127 187.277 301.995 C 191.571 300.823,196.897 299.126,199.115 298.226 C 201.332 297.325,203.170 296.660,203.199 296.749 C 205.298 303.131,214.139 312.123,222.235 316.109 C 233.992 321.896,261.558 323.874,276.423 319.995 L 282.602 318.383 268.943 317.958 C 259.457 317.663,254.093 317.207,251.382 316.465 C 241.427 313.740,229.731 305.519,238.776 307.604 C 248.696 309.891,258.381 306.816,260.485 300.712 C 261.620 297.418,261.429 297.356,257.642 299.786 C 246.344 307.035,233.606 295.506,241.867 285.507 C 252.249 272.938,288.189 275.048,302.169 289.046 C 307.580 294.464,312.195 304.703,312.195 311.290 C 312.195 313.821,313.299 312.609,316.646 306.400 L 319.244 301.581 321.858 305.626 C 330.716 319.331,330.788 343.463,322.012 357.724 C 317.203 365.540,327.881 354.793,333.968 345.691 C 350.605 320.813,344.807 287.992,320.320 268.437 C 291.300 245.264,261.343 230.097,226.341 220.858 C 214.568 217.751,214.474 217.833,223.737 223.140 C 239.433 232.133,256.544 244.213,262.729 250.669 C 265.550 253.612,266.554 253.589,245.854 251.057 C 224.409 248.433,224.453 248.428,233.171 252.630 L 240.325 256.078 237.724 256.568 C 229.660 258.084,225.588 259.030,221.930 260.236 L 217.843 261.584 216.555 259.947 C 211.400 253.392,198.018 246.123,188.786 244.862 L 185.691 244.439 188.293 245.861 C 199.894 252.201,202.268 265.919,193.027 273.223 C 179.399 283.995,147.397 286.240,134.528 277.326 L 131.816 275.447 135.339 274.964 C 149.271 273.052,160.003 270.423,165.049 267.685 C 166.700 266.789,166.190 266.717,158.049 266.689 C 126.873 266.583,109.683 256.901,108.739 238.916 C 108.364 231.776,109.027 231.207,112.241 235.909 C 118.808 245.520,128.833 253.564,135.610 254.662 L 138.211 255.084 134.191 251.432 C 126.171 244.148,124.383 237.256,128.422 229.193 C 134.944 216.171,149.573 209.155,178.537 205.160 L 181.789 204.711 180.163 206.485 C 178.564 208.229,174.296 210.679,169.775 212.448 C 166.015 213.919,185.952 213.077,194.102 211.420 C 203.373 209.536,205.236 208.831,224.715 199.844 C 252.117 187.203,261.104 180.830,269.212 168.292 C 272.636 162.998,272.048 162.997,274.714 168.293 C 282.238 183.242,284.855 202.073,281.378 216.255 C 280.130 221.346,280.063 221.351,285.834 215.869 C 311.425 191.560,308.495 159.593,277.048 120.021 C 272.740 114.599,272.956 114.176,278.885 116.429 C 293.330 121.919,309.361 132.445,327.078 148.072 C 331.174 151.685,331.167 151.157,327.004 142.764 C 321.450 131.568,311.959 119.244,302.360 110.765 C 297.368 106.355,286.383 98.211,285.427 98.211 C 285.125 98.211,284.878 97.952,284.878 97.635 C 284.878 96.918,302.450 93.643,320.650 90.966 L 326.179 90.153 322.927 89.658 C 317.600 88.846,293.903 87.204,280.674 86.731 C 273.138 86.461,268.837 86.079,269.617 85.749 C 274.007 83.893,319.612 71.907,333.547 68.948 C 338.315 67.935,342.388 66.934,342.599 66.724 C 343.197 66.126,321.080 66.297,306.341 67.005 C 284.306 68.064,264.818 70.304,245.990 73.941 C 236.077 75.856,235.312 75.650,239.350 72.161 C 240.960 70.770,241.941 69.624,241.531 69.613 C 239.523 69.561,211.070 75.554,206.663 76.957 C 201.573 78.578,200.563 78.423,201.290 76.132 C 202.431 72.536,206.752 70.529,218.537 68.120 L 222.764 67.255 219.512 66.202 C 217.724 65.623,215.117 64.956,213.719 64.721 L 211.178 64.293 217.622 57.765 C 223.336 51.975,237.630 39.221,243.902 34.315 C 246.837 32.020,246.272 32.089,238.049 35.030 M162.894 104.832 C 160.766 106.685,157.031 110.197,154.594 112.637 L 150.165 117.073 143.212 117.044 L 136.260 117.015 139.361 114.234 C 145.591 108.649,160.048 101.500,165.170 101.472 C 166.565 101.465,166.280 101.884,162.894 104.832 " stroke="none" fill="#000000" fill-rule="evenodd"></path></g></svg>