<?xml version="1.0" encoding="UTF-8"?>
<svg version="1.1" xmlns="http://www.w3.org/2000/svg" width="523" height="509">
<path d="M0 0 C1.01682861 0.32145996 1.01682861 0.32145996 2.05419922 0.64941406 C36.5114097 11.83396573 63.99049146 35.0585305 81 67 C96.71568568 97.99464347 99.91858703 135.03045312 89.10961914 168.1496582 C83.17736539 185.34306638 74.86653775 200.14453219 63 214 C62.26394531 214.88171875 61.52789062 215.7634375 60.76953125 216.671875 C44.66465659 235.27261115 22.65383572 247.787652 -0.75 254.8125 C-1.3982373 255.0074707 -2.04647461 255.20244141 -2.71435547 255.40332031 C-13.87917187 258.56143999 -24.93027575 259.4104474 -36.5 259.375 C-37.20176361 259.37412384 -37.90352722 259.37324768 -38.6265564 259.37234497 C-74.24030926 259.22622327 -107.3498831 244.91329633 -132.45947266 219.63134766 C-158.64703344 191.89992433 -170.10359386 156.62099919 -169.13623047 118.94189453 C-167.66179415 87.10146855 -153.29738616 58.1580882 -132 35 C-131.07960938 33.97326172 -131.07960938 33.97326172 -130.140625 32.92578125 C-115.0663367 16.91867808 -94.64732188 6.64190737 -74 0 C-73.27248535 -0.24008789 -72.5449707 -0.48017578 -71.79541016 -0.72753906 C-50.42699782 -7.43233433 -21.22477956 -6.90501618 0 0 Z M-66 40 C-67.04800781 40.37382812 -68.09601563 40.74765625 -69.17578125 41.1328125 C-92.40008333 50.04480644 -111.47016622 68.78358854 -121.7253418 91.30493164 C-131.52445362 114.1477567 -131.43638181 139.29865814 -122.4675293 162.32104492 C-112.88650707 185.5826196 -94.87702369 202.92019235 -71.90234375 212.90625 C-60.69262476 217.13063939 -50.27271896 219.18021865 -38.375 219.1875 C-37.34503906 219.19974609 -36.31507813 219.21199219 -35.25390625 219.22460938 C-28.29307258 219.23774302 -21.79891061 218.48626173 -15 217 C-15 216.67 -15 216.34 -15 216 C-15.86612915 216.02356567 -15.86612915 216.02356567 -16.74975586 216.04760742 C-44.20655175 216.69208208 -68.7787217 211.91461761 -90 193 C-90.77085937 192.32324219 -91.54171875 191.64648438 -92.3359375 190.94921875 C-105.80068125 178.38059276 -114.48265918 159.37748933 -115.3359375 140.95703125 C-115.70914408 119.49249832 -109.86499769 99.17472971 -94.75 83.25 C-81.68152002 70.88792434 -65.76312151 65.35357491 -48 65 C-30.87416953 65.70987898 -15.71660677 72.34231965 -3.8828125 84.703125 C5.99096477 96.74831387 10.10070868 110.56969499 9 126 C7.04791479 138.65546766 1.13699639 150.96243101 -9.31640625 158.71875 C-20.31771268 165.74305833 -31.57339518 167.78341172 -44.46875 165.34375 C-55.04747795 162.47661813 -63.57906182 156.58303294 -69.15234375 147.0234375 C-73.55388583 138.65894116 -74.27966116 130.05514759 -71.875 120.875 C-69.5582673 113.92480191 -65.19258817 107.98094954 -59 104 C-51.83900134 100.48231645 -44.46275982 99.7580546 -36.62890625 101.5390625 C-29.55773543 103.97186607 -25.36324473 107.84755344 -21.94921875 114.36328125 C-19.77014069 120.41627587 -20.05169104 126.649843 -22.4375 132.5625 C-22.953125 133.366875 -23.46875 134.17125 -24 135 C-24.495 136.485 -24.495 136.485 -25 138 C-29.81025087 141.00507946 -35.89702008 142.41019175 -41.51171875 141.66796875 C-45.55756021 140.52443339 -47.63449122 139.40205966 -50.5 136.25 C-52.75510562 131.36393782 -53.66599117 127.92397448 -51.875 122.75 C-49.85994986 119.79459312 -48.18765178 118.55074952 -45 117 C-46 118 -46 118 -48 119.5 C-50.87172525 123.08965656 -51.33879284 126.45387285 -51 131 C-49.42134908 134.21577038 -48.05321778 136.17247175 -45.25 138.375 C-40.20639605 139.7760011 -36.42491464 139.65765291 -31.75 137.5 C-27.75244643 133.86586039 -25.22190192 130.19863503 -24.83984375 124.69140625 C-25.25241378 118.72423477 -27.09894838 114.53255776 -31.69140625 110.5234375 C-36.18491146 107.27358929 -40.01966005 106.26379921 -45.546875 106.5859375 C-52.10212671 107.69239718 -56.68898392 110.89018376 -60.74609375 116.0859375 C-64.62196132 122.00237086 -65.89503941 127.98681452 -65 135 C-63.68643487 140.66156753 -61.48993527 144.20849911 -57 148 C-56.41089844 148.5053125 -55.82179688 149.010625 -55.21484375 149.53125 C-48.41081968 155.05021982 -41.42013895 157.69086473 -32.6015625 157.3359375 C-22.72632784 156.06075705 -15.47348081 151.47838939 -9 144 C-2.18366892 133.50349016 -0.8011339 122.21344843 -2 110 C-2.84329516 106.30579221 -4.13015818 103.2839097 -6 100 C-6.4125 99.23429687 -6.825 98.46859375 -7.25 97.6796875 C-12.43149643 88.99479291 -20.6672167 82.73672368 -30 79 C-30.67675781 78.70222656 -31.35351562 78.40445313 -32.05078125 78.09765625 C-43.98587691 73.62457204 -58.28601953 74.65908747 -69.90625 79.4375 C-74.65071084 81.83369234 -78.85558526 84.685951 -83 88 C-83.825 88.61875 -84.65 89.2375 -85.5 89.875 C-98.71392428 101.10683564 -104.61601706 118.06406066 -106.28125 134.83203125 C-106.9202848 152.59187351 -100.51271499 169.56356657 -89 183 C-88.23558594 183.9590625 -87.47117188 184.918125 -86.68359375 185.90625 C-74.13854394 200.90257787 -53.33644096 209.16434896 -34.375 211.75 C-32.91857418 211.86182296 -31.45958853 211.9427124 -30 212 C-29.01773438 212.03996094 -28.03546875 212.07992187 -27.0234375 212.12109375 C-5.91024731 212.54940429 13.19799903 206.80607309 28.81640625 192.2734375 C45.99920437 174.38365484 54.63273945 151.08149381 55.25 126.5 C54.5294427 99.35900826 43.46490227 77.59546191 24.09765625 58.734375 C16.1992544 51.55818566 7.190645 46.17967352 -2.625 42.0625 C-3.26840332 41.79211914 -3.91180664 41.52173828 -4.57470703 41.24316406 C-15.25783316 37.0527656 -25.9443179 35.45968391 -37.375 35.5625 C-39.14435913 35.57277222 -39.14435913 35.57277222 -40.94946289 35.58325195 C-49.89527913 35.7476722 -57.58705882 36.80203727 -66 40 Z " fill="#36F9F7" transform="translate(300,131)"/>
<path d="M0 0 C0.99 0.33 1.98 0.66 3 1 C4.38671875 3.8359375 4.38671875 3.8359375 5.6875 7.375 C6.12449219 8.53773438 6.56148437 9.70046875 7.01171875 10.8984375 C8 14 8 14 8 17 C6.58911133 18.37182617 6.58911133 18.37182617 4.58203125 19.79296875 C3.83171631 20.33356934 3.08140137 20.87416992 2.30834961 21.43115234 C1.48471924 22.01074707 0.66108887 22.5903418 -0.1875 23.1875 C-1.92067753 24.43163645 -3.65239205 25.67781293 -5.3828125 26.92578125 C-6.29579102 27.58271973 -7.20876953 28.2396582 -8.14941406 28.91650391 C-13.96213479 33.16502726 -19.63745579 37.59864153 -25.3190918 42.02026367 C-26.16383057 42.67099854 -27.00856934 43.3217334 -27.87890625 43.9921875 C-28.6272876 44.57339355 -29.37566895 45.15459961 -30.14672852 45.75341797 C-32 47 -32 47 -34 47 C-34.8680908 45.08959948 -35.71901783 43.17139263 -36.5625 41.25 C-37.03816406 40.18265625 -37.51382813 39.1153125 -38.00390625 38.015625 C-38.99943698 35.00170452 -39.29243291 33.84335241 -38 31 C-35.9375 29.25 -35.9375 29.25 -34 28 C-34.60990891 24.44219804 -35.5783681 21.3171411 -37 18 C-39.64 18 -42.28 18 -45 18 C-45.6708712 16.3767313 -46.33657029 14.75132422 -47 13.125 C-47.37125 12.22007812 -47.7425 11.31515625 -48.125 10.3828125 C-49 8 -49 8 -49 6 C-37.68798964 4.39133132 -26.37915956 3.23619524 -14.9987793 2.24731445 C-12.88819738 2.06274783 -10.77808631 1.87338398 -8.66796875 1.68359375 C-7.43328857 1.57587646 -6.1986084 1.46815918 -4.92651367 1.35717773 C-2.0695632 1.17459816 -2.0695632 1.17459816 0 0 Z " fill="#3BF7F4" transform="translate(104,315)"/>
<path d="M0 0 C2.58324013 1.29162007 2.69721131 2.27331625 3.7265625 4.9296875 C4.190625 6.12271484 4.190625 6.12271484 4.6640625 7.33984375 C4.98117187 8.17644531 5.29828125 9.01304687 5.625 9.875 C6.11226563 11.11830078 6.11226563 11.11830078 6.609375 12.38671875 C9 18.60435268 9 18.60435268 9 22 C9.66 22 10.32 22 11 22 C11.226875 21.2575 11.45375 20.515 11.6875 19.75 C13.33245584 16.30342587 14.70163617 14.93599616 18 13 C22.96423241 12.13322926 22.96423241 12.13322926 26 13 C31.97833748 17.61444014 34.38484539 24.92862045 36.9375 31.75 C37.55334961 33.31041016 37.55334961 33.31041016 38.18164062 34.90234375 C41.13375235 42.59874295 41.13375235 42.59874295 40 46 C37.8203125 47.203125 37.8203125 47.203125 35.125 48.25 C34.24070312 48.60578125 33.35640625 48.9615625 32.4453125 49.328125 C30 50 30 50 27 49 C25.83325195 46.86694336 25.83325195 46.86694336 24.73828125 44.08984375 C24.34189453 43.10048828 23.94550781 42.11113281 23.53710938 41.09179688 C22.93092773 39.53041992 22.93092773 39.53041992 22.3125 37.9375 C21.89677734 36.89271484 21.48105469 35.84792969 21.05273438 34.77148438 C20.02513248 32.18476236 19.00809705 29.59437206 18 27 C16.02463255 27.34786708 16.02463255 27.34786708 14 28 C12.72812956 29.97139926 12.72812956 29.97139926 13.63671875 32.10717773 C13.98347656 32.95739502 14.33023437 33.8076123 14.6875 34.68359375 C15.05617188 35.61107422 15.42484375 36.53855469 15.8046875 37.49414062 C16.60020093 39.45302745 17.39707165 41.41136363 18.1953125 43.36914062 C18.56398438 44.29791016 18.93265625 45.22667969 19.3125 46.18359375 C19.65925781 47.03493896 20.00601563 47.88628418 20.36328125 48.76342773 C21 51 21 51 20 54 C17.27734375 55.16796875 17.27734375 55.16796875 13.9375 56.1875 C12.83277344 56.53167969 11.72804688 56.87585938 10.58984375 57.23046875 C9.73519531 57.48441406 8.88054687 57.73835938 8 58 C5.57416574 51.9146523 3.15362895 45.82721753 0.73681641 39.73828125 C-0.08649939 37.66585269 -0.91104029 35.59391039 -1.73681641 33.52246094 C-2.92149823 30.55008997 -4.1018065 27.57601525 -5.28125 24.6015625 C-5.83903137 23.20618759 -5.83903137 23.20618759 -6.40808105 21.78262329 C-6.74843384 20.92188202 -7.08878662 20.06114075 -7.43945312 19.17431641 C-7.7414563 18.41486725 -8.04345947 17.65541809 -8.35461426 16.87295532 C-9 15 -9 15 -9 13 C-10.32 12.34 -11.64 11.68 -13 11 C-13 9.68 -13 8.36 -13 7 C-10.91796875 5.33203125 -10.91796875 5.33203125 -8.1875 3.8125 C-7.29417969 3.30332031 -6.40085937 2.79414063 -5.48046875 2.26953125 C-3 1 -3 1 0 0 Z " fill="#3AF7F5" transform="translate(322,416)"/>
<path d="M0 0 C1.6415049 3.2830098 0.51888624 6.42545033 0 10 C-1.2375 9.505 -1.2375 9.505 -2.5 9 C-6.5873983 7.83217191 -9.76923344 7.8541115 -14 8 C-13.94726162 10.43816916 -13.94726162 10.43816916 -13 13 C-10.450324 14.48679768 -10.450324 14.48679768 -7.3125 15.4375 C-1.78962805 17.52172668 1.30881133 19.41095463 5 24 C6.05336511 27.16009533 6.20032888 29.5553136 6.25 32.875 C6.27578125 33.90367187 6.3015625 34.93234375 6.328125 35.9921875 C5.82037659 40.64654795 3.92592454 43.16666791 0.5 46.25 C-4.82305528 49.97613869 -10.73507227 49.47694289 -17 49 C-19.93992592 48.18915749 -22.79373905 47.20626095 -25 45 C-25.07205511 43.31391034 -25.08386068 41.62499341 -25.0625 39.9375 C-25.05347656 39.01839844 -25.04445313 38.09929687 -25.03515625 37.15234375 C-25.01775391 36.08693359 -25.01775391 36.08693359 -25 35 C-24.34 35.309375 -23.68 35.61875 -23 35.9375 C-18.56697233 37.50753063 -14.05211299 38.76954237 -9.5 37.0625 C-8.7575 36.5365625 -8.7575 36.5365625 -8 36 C-9.0331785 33.14818567 -9.72826585 32.15052584 -12.42578125 30.65625 C-13.85470703 30.08390625 -13.85470703 30.08390625 -15.3125 29.5 C-21.06508767 27.01097187 -25.28894382 25.17950555 -27.8125 19.1875 C-29.46232303 14.10604508 -29.64352574 9.93057723 -27.9375 4.8125 C-21.8425765 -4.0349696 -8.74817872 -5.68631617 0 0 Z " fill="#3EF4F2" transform="translate(303,433)"/>
<path d="M0 0 C15.70656362 0.59270051 31.34072409 1.65019792 47 3 C46.54636829 4.58468677 46.08688548 6.16769924 45.625 7.75 C45.24214844 9.07257813 45.24214844 9.07257813 44.8515625 10.421875 C44.0790066 12.76080572 43.16374324 14.83442562 42 17 C39.69 17 37.38 17 35 17 C34.01 19.97 33.02 22.94 32 26 C33.65 26.99 35.3 27.98 37 29 C36.44894091 32.9492568 35.61064629 36.34920174 34 40 C28.79039714 38.35322693 24.77875106 35.14091216 20.4375 31.9375 C19.64263184 31.35838867 18.84776367 30.77927734 18.02880859 30.18261719 C12.41183885 26.07917497 6.86624101 21.88988615 1.3828125 17.609375 C-0.83976314 16.10822555 -2.37848516 15.41456514 -5 15 C-4.73988711 13.62293175 -4.46626234 12.24841445 -4.1875 10.875 C-4.03667969 10.10929688 -3.88585938 9.34359375 -3.73046875 8.5546875 C-2.85140171 5.48030331 -1.49213 2.8207389 0 0 Z " fill="#3AF7F5" transform="translate(54,177)"/>
<path d="M0 0 C1.96635733 0.1760917 3.92504626 0.44137423 5.875 0.75 C6.94492187 0.90984375 8.01484375 1.0696875 9.1171875 1.234375 C12 2 12 2 15 5 C12.69 10.94 10.38 16.88 8 23 C8.66 22.67 9.32 22.34 10 22 C13.65978542 21.72378978 16.36334353 21.75948533 19.8125 23.0625 C22.73284897 25.6490948 23.69987556 28.18776242 24 32 C23.30229687 35.52859259 22.05869097 38.78166497 20.75 42.125 C20.26080078 43.44564453 20.26080078 43.44564453 19.76171875 44.79296875 C18.23672448 48.88637442 16.64547916 52.95346452 15 57 C13.58194169 56.71517632 12.16559621 56.42181856 10.75 56.125 C9.96109375 55.96257812 9.1721875 55.80015625 8.359375 55.6328125 C6.03168856 55.00849925 4.10968048 54.15161458 2 53 C4.52808794 45.28267891 7.25027472 37.64054098 10 30 C8.02 30 6.04 30 4 30 C3.89816406 30.66386719 3.79632813 31.32773438 3.69140625 32.01171875 C2.81681465 35.79173327 1.41394985 39.23270859 -0.0625 42.8125 C-0.34416016 43.50537109 -0.62582031 44.19824219 -0.91601562 44.91210938 C-1.60674973 46.60967624 -2.30283728 48.30506312 -3 50 C-7.55833544 49.342425 -10.94519187 48.22049017 -15 46 C-14.40266977 41.19875645 -12.96185699 37.07091998 -11.05859375 32.66015625 C-10.46907285 31.2533927 -9.87989047 29.84648724 -9.29101562 28.43945312 C-8.36515836 26.2476929 -7.43545795 24.05772884 -6.49926758 21.87036133 C-5.59144273 19.74222097 -4.69922546 17.60803795 -3.80859375 15.47265625 C-3.52737167 14.82764664 -3.2461496 14.18263702 -2.95640564 13.51808167 C-1.15896123 9.17716556 -0.82966831 5.66443961 -1 1 C-0.67 0.67 -0.34 0.34 0 0 Z " fill="#3EF3F1" transform="translate(336,40)"/>
<path d="M0 0 C0.95648438 0.37253906 1.91296875 0.74507813 2.8984375 1.12890625 C5.22691864 2.0370139 7.55222091 2.95242779 9.875 3.875 C9.56777982 5.31177265 9.25724074 6.74783588 8.9453125 8.18359375 C8.77273926 8.98337646 8.60016602 9.78315918 8.42236328 10.60717773 C7.80886031 13.14902836 6.95079077 15.49289187 5.875 17.875 C-0.40280638 16.07745023 -6.50571577 14.04095109 -12.58203125 11.64453125 C-15.23302031 10.84231182 -17.37229235 10.73168129 -20.125 10.875 C-20.455 12.525 -20.785 14.175 -21.125 15.875 C-20.26841797 16.11283203 -20.26841797 16.11283203 -19.39453125 16.35546875 C-12.17637717 18.43255283 -4.96342933 20.74974497 1.875 23.875 C2.37 24.865 2.37 24.865 2.875 25.875 C2.14321134 27.94696631 1.31600997 29.9858552 0.4375 32 C-0.03558594 33.09570312 -0.50867188 34.19140625 -0.99609375 35.3203125 C-1.36863281 36.16335938 -1.74117188 37.00640625 -2.125 37.875 C-2.82584717 37.59712646 -3.52669434 37.31925293 -4.2487793 37.03295898 C-7.43165396 35.77956217 -10.62182112 34.54588707 -13.8125 33.3125 C-14.91529297 32.87486328 -16.01808594 32.43722656 -17.15429688 31.98632812 C-18.7543457 31.37241211 -18.7543457 31.37241211 -20.38671875 30.74609375 C-21.85564575 30.17266235 -21.85564575 30.17266235 -23.35424805 29.58764648 C-26.40082551 28.80405677 -28.11425364 29.13959714 -31.125 29.875 C-33.4375 28.9375 -33.4375 28.9375 -35.125 27.875 C-35.45766291 21.66529227 -34.57529331 17.59235105 -32.125 11.875 C-30.805 11.875 -29.485 11.875 -28.125 11.875 C-28.455 10.885 -28.785 9.895 -29.125 8.875 C-29.69376939 0.05907446 -29.69376939 0.05907446 -26.125 -4.125 C-18.92314399 -9.1444754 -7.18091662 -2.85421265 0 0 Z " fill="#3BF6F4" transform="translate(467.125,319.125)"/>
<path d="M0 0 C3.2653504 1.28412656 6.067661 3.08607814 9 5 C10.20221852 5.75665053 11.40541727 6.51174492 12.609375 7.265625 C22.51740794 13.51740794 22.51740794 13.51740794 25 16 C23.02 18.97 21.04 21.94 19 25 C17.68 24.67 16.36 24.34 15 24 C15.0825 25.03125 15.165 26.0625 15.25 27.125 C14.90709233 32.44006884 12.81354817 35.12391568 9.1875 38.875 C5.96860302 40.53043273 3.56753756 40.37553027 0 40 C-4.15177657 38.20718739 -6.27158115 36.18459301 -8 32 C-9.32995309 24.61949111 -6.67255632 19.28269455 -3 13 C-5.89050521 13.26079687 -5.89050521 13.26079687 -9 15 C-11.03693441 18.17909143 -12.54884001 21.51978446 -14 25 C-16.31 24.67 -18.62 24.34 -21 24 C-20.52111074 15.37999338 -17.28771624 6.89734885 -10.72265625 1.00390625 C-7.20489737 -1.04612557 -3.88751376 -0.84511169 0 0 Z " fill="#3EF4F2" transform="translate(431,359)"/>
<path d="M0 0 C7.35997956 0.84634408 12.87875062 4.44775404 17.75390625 9.99609375 C19.92744554 13.17280502 20.94152015 15.70228439 21.6875 19.5 C19.74314597 29.3985296 9.46752135 36.8902098 2 43 C0.99061095 43.99052196 -0.01169472 44.98844048 -1 46 C-2.17560179 44.73742767 -3.34022865 43.46462916 -4.5 42.1875 C-5.1496875 41.47980469 -5.799375 40.77210938 -6.46875 40.04296875 C-8 38 -8 38 -8 35 C-8.53109375 34.76925781 -9.0621875 34.53851563 -9.609375 34.30078125 C-15.07633827 31.77680003 -18.68745498 29.41261705 -20.9375 23.5625 C-21.05133505 18.89526304 -18.88798076 15.96409339 -15.8125 12.625 C-12.11143954 10.48660951 -9.11117026 10.12793358 -5 11 C-0.70298229 12.88734489 3.10493323 15.40328882 7 18 C7.33 16.68 7.66 15.36 8 14 C7.52949219 13.60167969 7.05898437 13.20335937 6.57421875 12.79296875 C5.95160156 12.26316406 5.32898438 11.73335938 4.6875 11.1875 C3.76517578 10.40439453 3.76517578 10.40439453 2.82421875 9.60546875 C1.14575321 8.12827531 -0.43882034 6.59960869 -2 5 C-1.34 3.35 -0.68 1.7 0 0 Z " fill="#3CF6F3" transform="translate(120,381)"/>
<path d="M0 0 C3.56108467 1.32786208 5.35513566 2.35513566 8 5 C7.625 8.625 7.625 8.625 7 12 C4 12 4 12 1.625 11 C-1.12358135 9.95292139 -3.08867007 9.83363829 -6 10 C-5.58598561 14.46100506 -2.75988693 16.2773131 0.5 19.0625 C5.89536981 23.68610944 5.89536981 23.68610944 7 27 C7.49975702 33.49684132 6.2394505 38.34065253 2 43.375 C-1.8827635 46.52974535 -6.20871497 46.48681506 -11 46 C-15.44232002 44.83519638 -19.68266527 43.25809661 -23 40 C-23.171875 37.51953125 -23.171875 37.51953125 -22.75 34.8125 C-22.62109375 33.91144531 -22.4921875 33.01039062 -22.359375 32.08203125 C-22.24078125 31.39496094 -22.1221875 30.70789063 -22 30 C-19.74370103 31.09252371 -17.74608279 32.17842831 -15.6875 33.625 C-12.30503387 35.35556406 -9.74744738 35.22043808 -6 35 C-7.32906197 30.79729051 -8.8253955 29.03581294 -12.4375 26.5625 C-16.24229672 23.72419505 -18.56890269 21.67491788 -20 17 C-20.7506403 11.59321404 -20.03282855 7.65755813 -17 3 C-12.23486642 -1.58018547 -6.19294878 -0.58467591 0 0 Z " fill="#3DF5F2" transform="translate(302,35)"/>
<path d="M0 0 C7.48641304 9.03532609 7.48641304 9.03532609 8 14 C7.34 14.66 6.68 15.32 6 16 C6.78375 16.5775 7.5675 17.155 8.375 17.75 C12.13513514 20.97297297 12.13513514 20.97297297 13 24 C12.93106001 27.86063966 12.84795165 30.1275714 10.10546875 32.94921875 C5.78153213 35.80464859 1.21500878 37.50903624 -3.625 39.3125 C-5.05585938 39.8703418 -5.05585938 39.8703418 -6.515625 40.43945312 C-7.88847656 40.95862305 -7.88847656 40.95862305 -9.2890625 41.48828125 C-10.12131348 41.80321533 -10.95356445 42.11814941 -11.81103516 42.44262695 C-14 43 -14 43 -17 42 C-17.94921875 40.29296875 -17.94921875 40.29296875 -18.6875 38.1875 C-18.93886719 37.50042969 -19.19023437 36.81335938 -19.44921875 36.10546875 C-20 34 -20 34 -20 30 C-19.42967041 29.80889648 -18.85934082 29.61779297 -18.27172852 29.42089844 C-15.69595386 28.54732687 -13.12947492 27.64908342 -10.5625 26.75 C-9.66466797 26.44964844 -8.76683594 26.14929688 -7.84179688 25.83984375 C-6.98779297 25.53691406 -6.13378906 25.23398438 -5.25390625 24.921875 C-4.46314697 24.64956055 -3.6723877 24.37724609 -2.85766602 24.09667969 C-0.79862342 23.14715391 -0.79862342 23.14715391 -0.23413086 20.87988281 C-0.15686768 20.25952148 -0.07960449 19.63916016 0 19 C-6.18886871 19.43178154 -11.39477443 21.59576206 -17.109375 23.94140625 C-20 25 -20 25 -23 25 C-23.69906942 23.40084119 -24.38389468 21.79544955 -25.0625 20.1875 C-25.44535156 19.29417969 -25.82820313 18.40085938 -26.22265625 17.48046875 C-27 15 -27 15 -26 12 C-24.18994141 11.0168457 -24.18994141 11.0168457 -21.8515625 10.17578125 C-21.01109375 9.86962891 -20.170625 9.56347656 -19.3046875 9.24804688 C-17.97824219 8.78495117 -17.97824219 8.78495117 -16.625 8.3125 C-15.7484375 7.99216797 -14.871875 7.67183594 -13.96875 7.34179688 C-7.43768324 5 -7.43768324 5 -4 5 C-3.71125 4.360625 -3.4225 3.72125 -3.125 3.0625 C-2 1 -2 1 0 0 Z " fill="#40F2EF" transform="translate(461,172)"/>
<path d="M0 0 C5.43420861 3.30136682 9.81243681 7.65127561 14.140625 12.265625 C16.00256448 14.00239208 17.67610881 14.99229497 20 16 C19.75881648 19.25597758 18.47775788 20.7276304 16.125 22.8125 C15.09375 23.534375 14.0625 24.25625 13 25 C12.01 24.67 11.02 24.34 10 24 C9.938125 25.051875 9.87625 26.10375 9.8125 27.1875 C8.83379072 31.77990511 7.8295045 33.31119897 4 36 C-0.1866442 36.96419685 -3.11566115 36.48061894 -6.875 34.4375 C-9.69510329 31.20267564 -10.51518777 29.29405119 -11 25 C-9.69158283 20.2434337 -7.73121454 16.09682181 -5 12 C-7.34148231 11.87786106 -7.34148231 11.87786106 -10 13 C-11.96188534 15.50803179 -13.49921743 18.19641043 -15 21 C-16.98 20.34 -18.96 19.68 -21 19 C-20.18167464 11.80293335 -16.66962891 6.17823152 -11.19140625 1.43359375 C-7.19473096 -1.12107397 -4.41075828 -1.62027855 0 0 Z " fill="#3EF3F1" transform="translate(122,108)"/>
<path d="M0 0 C6.83740019 4.01127478 13.01133849 8.31200042 15.7265625 16.078125 C16.41249173 19.60191831 16.14969468 21.71379618 14.4921875 24.8828125 C11.42593301 28.71803363 8.07927654 31.08221226 4 33.75 C3.2884375 34.23082031 2.576875 34.71164063 1.84375 35.20703125 C-1.36381935 37.3553846 -4.51759458 39.3223589 -8 41 C-8.84495189 39.92570402 -9.67554858 38.84010798 -10.5 37.75 C-10.9640625 37.14671875 -11.428125 36.5434375 -11.90625 35.921875 C-13 34 -13 34 -13 30 C-13.928125 29.443125 -14.85625 28.88625 -15.8125 28.3125 C-19.60496984 25.56110031 -20.49583011 23.59251156 -21.7265625 19.18359375 C-22 17 -22 17 -20.9375 14.125 C-17.82410481 10.7103085 -16.34674362 9.17457788 -11.625 8.5625 C-5.48813504 9.30315612 -2.21024627 12.78975373 2 17 C2.66 17 3.32 17 4 17 C3.68038924 13.27120778 3.15636891 12.14892277 0.375 9.5 C-0.40875 8.675 -1.1925 7.85 -2 7 C-1.86863344 4.175619 -1.25262369 2.50524739 0 0 Z " fill="#3DF4F2" transform="translate(435,131)"/>
<path d="M0 0 C4.29227942 0.46269985 6.02922065 2.90159458 8.75 6.0625 C9.54921875 6.98160156 10.3484375 7.90070313 11.171875 8.84765625 C11.77515625 9.55792969 12.3784375 10.26820313 13 11 C11.76113914 14.71658258 10.6767379 15.10751377 7.390625 17.1171875 C6.41762451 17.71853516 5.44462402 18.31988281 4.44213867 18.93945312 C3.38873291 19.57818359 2.33532715 20.21691406 1.25 20.875 C-0.93630804 22.2159663 -3.12250367 23.55711589 -5.30859375 24.8984375 C-6.42089355 25.57745117 -7.53319336 26.25646484 -8.67919922 26.95605469 C-11.85889803 28.91315206 -15.01307691 30.90502821 -18.16015625 32.9140625 C-19.11374023 33.51879395 -20.06732422 34.12352539 -21.04980469 34.74658203 C-22.86614308 35.89936944 -24.67814809 37.05901827 -26.48535156 38.22607422 C-27.30100586 38.73928223 -28.11666016 39.25249023 -28.95703125 39.78125 C-29.66835205 40.23564453 -30.37967285 40.69003906 -31.11254883 41.15820312 C-33 42 -33 42 -36 41 C-37.60546875 38.49609375 -37.60546875 38.49609375 -39.1875 35.4375 C-39.71730469 34.42558594 -40.24710937 33.41367187 -40.79296875 32.37109375 C-41.19128906 31.58863281 -41.58960937 30.80617188 -42 30 C-32.84932833 23.76757138 -23.5603757 17.76802073 -14.1875 11.875 C-13.11951172 11.19945068 -12.05152344 10.52390137 -10.95117188 9.82788086 C-9.95021484 9.20147705 -8.94925781 8.57507324 -7.91796875 7.9296875 C-7.01844482 7.36491699 -6.1189209 6.80014648 -5.19213867 6.21826172 C-3 5 -3 5 -1 5 C-0.67 3.35 -0.34 1.7 0 0 Z " fill="#3EF4F1" transform="translate(120,346)"/>
<path d="M0 0 C0.495 0.495 0.495 0.495 1 1 C0.94921875 2.9609375 0.94921875 2.9609375 0.6875 5.375 C0.60886719 6.16648437 0.53023437 6.95796875 0.44921875 7.7734375 C0 10 0 10 -2 13 C-3.98 12.34 -5.96 11.68 -8 11 C-8 8.69 -8 6.38 -8 4 C-11.45136841 4.38864654 -11.45136841 4.38864654 -15 6 C-18.28372255 10.73308974 -18.57477453 16.44384621 -18 22 C-14.96474514 24.02350324 -13.80573798 24.32124018 -10.3125 24.625 C-9.50425781 24.69976562 -8.69601563 24.77453125 -7.86328125 24.8515625 C-7.24839844 24.90054687 -6.63351563 24.94953125 -6 25 C-6 27.31 -6 29.62 -6 32 C-10.46763373 34.23381687 -16.69917987 33.73398064 -21.36328125 32.24609375 C-26.48913081 29.78452758 -30.05894495 27.24060727 -32.3125 21.875 C-33.56795155 14.79881855 -32.98975479 8.12712342 -29 2 C-20.29568488 -7.82025296 -10.08302938 -7.62375393 0 0 Z " fill="#3FF3F1" transform="translate(237,446)"/>
<path d="M0 0 C1.79585197 0.5916101 3.58659629 1.19874192 5.375 1.8125 C6.37273437 2.14894531 7.37046875 2.48539062 8.3984375 2.83203125 C11 4 11 4 13 7 C12.01 8.65 11.02 10.3 10 12 C10.515625 11.649375 11.03125 11.29875 11.5625 10.9375 C15.06579842 9.59007753 17.39462669 10.09865667 21 11 C23.21875 13.0546875 23.21875 13.0546875 25 15 C23.5489926 16.83913695 22.08898341 18.6711753 20.625 20.5 C19.40683594 22.03140625 19.40683594 22.03140625 18.1640625 23.59375 C17.09285156 24.78484375 17.09285156 24.78484375 16 26 C15.34 26 14.68 26 14 26 C14 25.34 14 24.68 14 24 C11.36 23.67 8.72 23.34 6 23 C1.05 30.425 1.05 30.425 -4 38 C-8.86569598 36.05372161 -11.86744637 34.07915761 -16 31 C-15.36539873 27.08973629 -13.46155306 24.42584555 -11.25 21.1875 C-10.53328125 20.12789063 -9.8165625 19.06828125 -9.078125 17.9765625 C-7.43514926 15.6232777 -5.74506348 13.33910581 -4 11.0625 C-1.89592847 7.84064046 -1.69146216 6.7024541 -2 3 C-1.34 2.01 -0.68 1.02 0 0 Z " fill="#40F1EE" transform="translate(151,409)"/>
<path d="M0 0 C3.06382739 0.32432407 3.98970965 0.98901487 6.140625 3.28515625 C7.18476563 4.65994141 7.18476563 4.65994141 8.25 6.0625 C8.95640625 6.98160156 9.6628125 7.90070313 10.390625 8.84765625 C10.92171875 9.55792969 11.4528125 10.26820313 12 11 C10.66536458 12.43229167 9.33072917 13.86458333 7.99609375 15.296875 C6.82585357 16.94862263 6.82585357 16.94862263 7.0703125 18.92578125 C8.73093398 22.63078127 11.93026101 24.96934203 14.87109375 27.68359375 C17 30 17 30 19 35 C16.03 37.64 13.06 40.28 10 43 C6.65678045 41.88559348 5.93980381 41.02527657 3.75 38.375 C0.81776571 34.90736836 -2.2502464 31.69255438 -5.51953125 28.54296875 C-7 27 -7 27 -9 24 C-9.825 23.855625 -10.65 23.71125 -11.5 23.5625 C-12.325 23.376875 -13.15 23.19125 -14 23 C-15.15625 20.96484375 -15.15625 20.96484375 -16 19 C-15.07544441 17.491987 -14.1349253 15.99375083 -13.1875 14.5 C-12.66542969 13.6646875 -12.14335937 12.829375 -11.60546875 11.96875 C-11.07566406 11.3190625 -10.54585938 10.669375 -10 10 C-6.89448334 10 -5.64738916 10.5393715 -3 12 C-3.061875 10.948125 -3.12375 9.89625 -3.1875 8.8125 C-2.9922214 4.84183507 -2.29674932 3.15803031 0 0 Z " fill="#3DF4F2" transform="translate(399,388)"/>
<path d="M0 0 C8.30340044 4.39905558 16.32735073 9.17503398 24.3125 14.125 C25.46404833 14.83486968 26.61574052 15.54450605 27.76757812 16.25390625 C32.90226428 19.42524189 37.99231254 22.63243353 43 26 C42.32902328 30.19360449 40.1441606 33.40334352 38 37 C34.81649324 36.36096345 32.45916208 35.24208662 29.69140625 33.55859375 C28.86785645 33.06077393 28.04430664 32.5629541 27.19580078 32.05004883 C26.32681152 31.51790771 25.45782227 30.9857666 24.5625 30.4375 C23.22421143 29.62865356 23.22421143 29.62865356 21.85888672 28.8034668 C17.88204829 26.3946205 13.92174831 23.9647072 10.00390625 21.4609375 C9.42374756 21.09299072 8.84358887 20.72504395 8.24584961 20.34594727 C6.7335471 19.3817092 5.22970296 18.40424061 3.7265625 17.42578125 C0.77987249 15.88489034 -1.73955393 15.50269125 -5 15 C-5.33 14.34 -5.66 13.68 -6 13 C-5.10333658 10.75689987 -4.10853317 8.55245679 -3.0625 6.375 C-2.49660156 5.18648437 -1.93070312 3.99796875 -1.34765625 2.7734375 C-0.90292969 1.85820312 -0.45820312 0.94296875 0 0 Z " fill="#3BF6F3" transform="translate(70,132)"/>
<path d="M0 0 C1.796875 1.2734375 1.796875 1.2734375 2.44140625 3.40234375 C2.49683594 4.20542969 2.55226562 5.00851563 2.609375 5.8359375 C2.71185547 7.04443359 2.71185547 7.04443359 2.81640625 8.27734375 C2.796875 10.2734375 2.796875 10.2734375 1.796875 11.2734375 C-0.640625 11.5234375 -0.640625 11.5234375 -3.203125 11.2734375 C-3.863125 10.2834375 -4.523125 9.2934375 -5.203125 8.2734375 C-7.26237639 7.54961283 -7.26237639 7.54961283 -9.203125 7.2734375 C-9.41164814 13.67973174 -9.3614445 19.20316392 -7.203125 25.2734375 C-6.59984375 25.1290625 -5.9965625 24.9846875 -5.375 24.8359375 C-4.57578125 24.6503125 -3.7765625 24.4646875 -2.953125 24.2734375 C-2.16421875 24.0878125 -1.3753125 23.9021875 -0.5625 23.7109375 C1.796875 23.2734375 1.796875 23.2734375 5.796875 23.2734375 C6.456875 24.5934375 7.116875 25.9134375 7.796875 27.2734375 C2.45367134 32.22567504 -1.69320812 34.2734375 -9.203125 34.2734375 C-14.00472376 33.46229363 -17.1589069 30.99414852 -20.203125 27.2734375 C-22.92928886 22.49781713 -23.88788957 17.75155406 -23.203125 12.2734375 C-21.26398859 6.45602828 -18.72210296 3.20906408 -13.203125 0.2734375 C-8.81242938 -1.19012771 -4.40141902 -1.4515318 0 0 Z " fill="#41F1EE" transform="translate(229.203125,49.7265625)"/>
<path d="M0 0 C2.72675159 2.40689803 4.11966596 4.92471023 5.6875 8.1875 C6.34298828 9.53908203 6.34298828 9.53908203 7.01171875 10.91796875 C7.50091797 11.94857422 7.50091797 11.94857422 8 13 C6.35 13.99 4.7 14.98 3 16 C3.5479083 20.2829452 5.02432804 22.85135641 7.5625 26.3125 C8.20316406 27.19550781 8.84382813 28.07851562 9.50390625 28.98828125 C9.99761719 29.65214844 10.49132812 30.31601563 11 31 C9.00546379 35.91285762 5.39520474 37.44794564 1 40 C-0.79848876 37.6090325 -2.58884084 35.21265138 -4.375 32.8125 C-4.88289062 32.13896484 -5.39078125 31.46542969 -5.9140625 30.77148438 C-8.52974784 27.24375086 -10.38420536 24.10163256 -12 20 C-14.54775306 19.10613836 -14.54775306 19.10613836 -17 19 C-17.68359375 17.234375 -17.68359375 17.234375 -18 15 C-16.78515625 13.078125 -16.78515625 13.078125 -15.0625 11.25 C-14.49660156 10.63640625 -13.93070313 10.0228125 -13.34765625 9.390625 C-12.90292969 8.93171875 -12.45820313 8.4728125 -12 8 C-9.13275314 8.57344937 -8.1385485 8.8614515 -6 11 C-5.938125 9.9275 -5.87625 8.855 -5.8125 7.75 C-5 4 -5 4 -2.4375 1.5625 C-1.633125 1.046875 -0.82875 0.53125 0 0 Z " fill="#3FF1EF" transform="translate(153,76)"/>
<path d="M0 0 C3.99500618 1.3697164 6.80009492 3.25722422 10 6 C9.67 7.32 9.34 8.64 9 10 C9.62648438 10.18175781 10.25296875 10.36351563 10.8984375 10.55078125 C11.71570313 10.80214844 12.53296875 11.05351563 13.375 11.3125 C14.18710937 11.55613281 14.99921875 11.79976562 15.8359375 12.05078125 C18 13 18 13 20 16 C17.03 18.64 14.06 21.28 11 24 C9.68 23.34 8.36 22.68 7 22 C4.63846666 20.87767482 4.63846666 20.87767482 2 21 C-0.21263375 22.76473218 -1.93752723 24.36726972 -3.8125 26.4375 C-4.31458984 26.96666016 -4.81667969 27.49582031 -5.33398438 28.04101562 C-6.56995168 29.34760964 -7.78688595 30.67216063 -9 32 C-12.21043882 30.61811547 -14.04936365 29.07578097 -16.25 26.375 C-16.77078125 25.74335937 -17.2915625 25.11171875 -17.828125 24.4609375 C-18.21484375 23.97882813 -18.6015625 23.49671875 -19 23 C-18.43152344 22.443125 -17.86304688 21.88625 -17.27734375 21.3125 C-7.73236534 12.85480792 -7.73236534 12.85480792 -2 2 C-1.34 1.34 -0.68 0.68 0 0 Z " fill="#42F1EE" transform="translate(406,99)"/>
<path d="M0 0 C1.91789713 0.28346278 3.83429183 0.5771028 5.75 0.875 C6.81734375 1.03742188 7.8846875 1.19984375 8.984375 1.3671875 C11.67708871 1.93223882 13.63572439 2.63422914 16 4 C15.3436716 8.30338565 13.85328259 11.87674613 12.05859375 15.83203125 C11.77146011 16.46864182 11.48432648 17.10525238 11.18849182 17.76115417 C10.27635209 19.78050998 9.35705292 21.79651078 8.4375 23.8125 C7.8152785 25.1866332 7.1935286 26.56098005 6.57226562 27.93554688 C5.05362805 31.2928549 3.52855513 34.64719371 2 38 C0.58208592 37.54554036 -0.83428046 37.08625056 -2.25 36.625 C-3.43335938 36.24214844 -3.43335938 36.24214844 -4.640625 35.8515625 C-6.86627958 35.04826333 -8.90931672 34.10288338 -11 33 C-10.40864801 29.47719278 -9.47922104 26.56316387 -7.93359375 23.34765625 C-7.3293457 22.05891602 -7.3293457 22.05891602 -6.71289062 20.74414062 C-5.86342179 18.95804458 -5.00925792 17.17417386 -4.15039062 15.39257812 C-1.96121745 10.70149275 -0.5449497 7.28685711 -1 2 C-0.67 1.34 -0.34 0.68 0 0 Z " fill="#3EF4F1" transform="translate(182,429)"/>
<path d="M0 0 C1.66864702 2.40960929 3.19365636 4.79812106 4.6875 7.3125 C5.57269794 8.76785318 6.4594358 10.22227077 7.34765625 11.67578125 C7.78996582 12.4023291 8.23227539 13.12887695 8.68798828 13.87744141 C11.65360531 18.67518507 14.83510995 23.33222921 18 28 C16.60632076 31.37227049 15.15724701 32.90493713 12.0625 34.8125 C11.37285156 35.25207031 10.68320312 35.69164062 9.97265625 36.14453125 C8 37 8 37 5 36 C3.7890625 34.49707031 3.7890625 34.49707031 2.625 32.578125 C2.19703125 31.88203125 1.7690625 31.1859375 1.328125 30.46875 C0.88984375 29.7365625 0.4515625 29.004375 0 28.25 C-0.43828125 27.53328125 -0.8765625 26.8165625 -1.328125 26.078125 C-3.15817141 23.07949474 -4.95735052 20.0756014 -6.68359375 17.015625 C-7.80346932 14.79838844 -7.80346932 14.79838844 -10.0625 14.5 C-10.701875 14.335 -11.34125 14.17 -12 14 C-13.25 11.4375 -13.25 11.4375 -14 9 C-5.39177489 -1.7972583 -5.39177489 -1.7972583 0 0 Z " fill="#3DF5F3" transform="translate(374,414)"/>
<path d="M0 0 C1.7726041 0.61996001 3.54302667 1.24615993 5.3125 1.875 C6.79169922 2.39707031 6.79169922 2.39707031 8.30078125 2.9296875 C11 4 11 4 14 6 C12.32401006 10.97867599 9.49700596 15.08792256 6.625 19.4375 C6.14289063 20.17548828 5.66078125 20.91347656 5.1640625 21.67382812 C2.46590914 25.79804352 -0.2602354 29.90333776 -3 34 C-7.10958767 32.54955729 -10.43258745 30.48889248 -14 28 C-12.09507719 22.42674013 -8.75781632 17.76749354 -5.54492188 12.8828125 C-3.20837676 9.2458994 -1.52291702 6.37641323 -1 2 C-0.67 1.34 -0.34 0.68 0 0 Z " fill="#40F1EE" transform="translate(378,78)"/>
<path d="M0 0 C4.47210971 3.90458726 6.2851087 9.6398397 8.6875 14.9375 C9.19861328 16.03513672 9.70972656 17.13277344 10.23632812 18.26367188 C10.71908203 19.32005859 11.20183594 20.37644531 11.69921875 21.46484375 C12.14096436 22.430271 12.58270996 23.39569824 13.0378418 24.39038086 C14 27 14 27 14 31 C12.75823305 31.70226141 11.50614401 32.38629109 10.25 33.0625 C9.55390625 33.44535156 8.8578125 33.82820313 8.140625 34.22265625 C5.52978353 35.17075379 4.55814331 35.0290882 2 34 C0.71972656 32.17407227 0.71972656 32.17407227 -0.359375 29.81640625 C-0.75253906 28.97142578 -1.14570313 28.12644531 -1.55078125 27.25585938 C-2.14439453 25.92264648 -2.14439453 25.92264648 -2.75 24.5625 C-3.16121094 23.67755859 -3.57242188 22.79261719 -3.99609375 21.88085938 C-7 15.32915023 -7 15.32915023 -7 13 C-7.99 13 -8.98 13 -10 13 C-10.66 11.35 -11.32 9.7 -12 8 C-10.75312408 7.03760548 -9.50235031 6.08025991 -8.25 5.125 C-7.55390625 4.59132813 -6.8578125 4.05765625 -6.140625 3.5078125 C-4.15277397 2.10761086 -2.20156614 1.02144735 0 0 Z " fill="#3FF2EF" transform="translate(182,61)"/>
<path d="M0 0 C1.32 3.63 2.64 7.26 4 11 C-3.5 15 -3.5 15 -8 15 C-9.32 11.37 -10.64 7.74 -12 4 C-4.5 0 -4.5 0 0 0 Z " fill="#44EFEC" transform="translate(201,413)"/>
<path d="M0 0 C1.79260132 0.05995322 3.58425795 0.1487241 5.375 0.25 C6.87160156 0.31960938 6.87160156 0.31960938 8.3984375 0.390625 C11 1 11 1 12.4375 2.75 C13.15011859 5.60047436 12.66701098 7.02474052 11.625 9.75 C11.18027344 10.94882812 11.18027344 10.94882812 10.7265625 12.171875 C10.36691406 13.07679688 10.36691406 13.07679688 10 14 C8.54119891 13.85892253 7.08296449 13.71197585 5.625 13.5625 C4.40683594 13.44068359 4.40683594 13.44068359 3.1640625 13.31640625 C1 13 1 13 -1 12 C-1.08196118 7.81998005 -0.89445704 4.07787895 0 0 Z " fill="#44EFED" transform="translate(355,400)"/>
<path d="M0 0 C3.9492568 0.55105909 7.34920174 1.38935371 11 3 C10.49287967 6.71888239 9.88391785 9.73454239 8 13 C3.72213252 12.50639991 0.90432869 11.95216435 -3 10 C-2.01 6.7 -1.02 3.4 0 0 Z " fill="#44ECEA" transform="translate(169,48)"/>
<path d="M0 0 C3.1611016 3.1611016 3.38812741 3.5561582 3.6875 7.6875 C3.78611328 8.89986328 3.78611328 8.89986328 3.88671875 10.13671875 C3.92410156 10.75160156 3.96148437 11.36648437 4 12 C0.2735915 13.04702186 -3.13013042 13.07442057 -7 13 C-7.66 9.7 -8.32 6.4 -9 3 C-6.03 2.01 -3.06 1.02 0 0 Z " fill="#41EFEC" transform="translate(395,66)"/>
<path d="M0 0 C2.15502531 3.23253796 2.46856135 4.25150923 2 8 C0.9375 9.875 0.9375 9.875 -1 11 C-4.6875 10.6875 -4.6875 10.6875 -8 10 C-10.20100503 4.61976549 -10.20100503 4.61976549 -9.25 1.6875 C-6.60285186 -1.88614998 -3.9791244 -0.9947811 0 0 Z " fill="#49E9E7" transform="translate(471,258)"/>
<path d="M0 0 C2.875 1.5 2.875 1.5 4.375 3.875 C4.875 6.5 4.875 6.5 4.4375 8.75 C2.875 10.5 2.875 10.5 -0.5625 11.4375 C-4.125 11.5 -4.125 11.5 -6.0625 10.4375 C-7.61786352 7.60124887 -7.58833792 5.67717433 -7.125 2.5 C-4.73725574 -0.43876216 -3.74961991 -0.59993919 0 0 Z " fill="#43EFED" transform="translate(67.125,257.5)"/>
<path d="M0 0 C-2.96647745 3.19249477 -6.04963636 5.4592987 -9.75 7.75 C-10.73484375 8.36359375 -11.7196875 8.9771875 -12.734375 9.609375 C-13.85585937 10.29773438 -13.85585937 10.29773438 -15 11 C-18 5.25 -18 5.25 -18 3 C-15.93918639 2.49309416 -13.87626474 1.99475381 -11.8125 1.5 C-10.66394531 1.2215625 -9.51539062 0.943125 -8.33203125 0.65625 C-5.43181171 0.08504615 -2.93903615 -0.13283779 0 0 Z " fill="#64686A" transform="translate(94,327)"/>
<path d="M0 0 C2.45933991 0.11369211 4.9167909 0.24042651 7.375 0.375 C8.07367188 0.4059375 8.77234375 0.436875 9.4921875 0.46875 C14.7734375 0.7734375 14.7734375 0.7734375 17 3 C16.34 4.98 15.68 6.96 15 9 C11.32305352 7.62859834 8.04681411 5.96304199 4.6875 3.9375 C3.80449219 3.41027344 2.92148438 2.88304687 2.01171875 2.33984375 C1.34785156 1.89769531 0.68398437 1.45554688 0 1 C0 0.67 0 0.34 0 0 Z " fill="#666A6C" transform="translate(64,190)"/>
<path d="M0 0 C2.375 -0.1875 2.375 -0.1875 5 0 C5.66 0.99 6.32 1.98 7 3 C4.69 5.31 2.38 7.62 0 10 C-0.99 9.67 -1.98 9.34 -3 9 C-3.8125 7.125 -3.8125 7.125 -4 5 C-3.34 4.01 -2.68 3.02 -2 2 C-1.34 2 -0.68 2 0 2 C0 1.34 0 0.68 0 0 Z " fill="#6D7072" transform="translate(116,402)"/>
<path d="M0 0 C3.98671063 1.36687222 6.88494633 3.15195093 10 6 C10 6.66 10 7.32 10 8 C4.71698113 9.32075472 4.71698113 9.32075472 1.625 7.9375 C0 6 0 6 -0.25 2.8125 C-0.1675 1.884375 -0.085 0.95625 0 0 Z " fill="#5E6365" transform="translate(432,376)"/>
<path d="M0 0 C0.763125 0.20625 1.52625 0.4125 2.3125 0.625 C2.3125 1.615 2.3125 2.605 2.3125 3.625 C0.0625 5.875 0.0625 5.875 -2.6875 7.625 C-5 7.375 -5 7.375 -6.6875 6.625 C-6.375 4.25 -6.375 4.25 -5.6875 1.625 C-2.6875 -0.375 -2.6875 -0.375 0 0 Z " fill="#6E7173" transform="translate(430.6875,150.375)"/>
<path d="M0 0 C2.95409701 1.37154504 5.44008376 2.98863724 8 5 C7.67 6.32 7.34 7.64 7 9 C4.32142828 8.63803085 2.39019086 8.26012724 0.125 6.75 C-1 5 -1 5 -0.6875 2.3125 C-0.460625 1.549375 -0.23375 0.78625 0 0 Z " fill="#6B6E70" transform="translate(121,124)"/>
<path d="M0 0 C-0.928125 0.391875 -1.85625 0.78375 -2.8125 1.1875 C-6.30740499 3.17479892 -7.36651237 4.3891326 -9 8 C-9.70670728 10.69254991 -9.70670728 10.69254991 -10 13 C-10.33 13 -10.66 13 -11 13 C-12.55121053 7.03380565 -12.55121053 7.03380565 -11.05859375 4.234375 C-7.64224092 0.03277092 -5.22603608 -1.62187327 0 0 Z " fill="#8D969B" transform="translate(259,248)"/>
<path d="M0 0 C3 1 3 1 3 1 Z " fill="#7D8589" transform="translate(260,248)"/>
</svg>
